<?xml version="1.0" standalone="no"?>
<!DOCTYPE svg PUBLIC "-//W3C//DTD SVG 20010904//EN"
 "http://www.w3.org/TR/2001/REC-SVG-20010904/DTD/svg10.dtd">
<svg version="1.0" xmlns="http://www.w3.org/2000/svg"
 width="700.000000pt" height="700.000000pt" viewBox="0 0 700.000000 700.000000"
 preserveAspectRatio="xMidYMid meet">
<metadata>
Created by potrace 1.11, written by Peter Selinger 2001-2013
</metadata>
<g transform="translate(0.000000,700.000000) scale(0.100000,-0.100000)"
fill="#000000" stroke="none">
<path d="M0 3500 l0 -3500 3500 0 3500 0 0 3500 0 3500 -3500 0 -3500 0 0
-3500z m1800 2164 c104 -30 188 -85 397 -257 477 -392 674 -555 1178 -969 292
-239 554 -461 583 -492 58 -64 124 -189 147 -281 23 -90 21 -252 -5 -345 -27
-95 -78 -191 -136 -258 -26 -29 -186 -168 -357 -308 -438 -361 -412 -319 -412
-654 l0 -245 27 -51 c34 -65 115 -138 175 -158 26 -9 79 -16 118 -16 59 0 82
5 126 28 30 15 200 147 379 293 179 146 584 476 900 733 316 257 601 490 632
517 120 104 165 280 111 433 -32 92 -71 133 -317 335 -991 811 -1659 1350
-1705 1373 -44 23 -67 28 -126 28 -39 0 -92 -7 -118 -16 -67 -23 -140 -93
-183 -175 -67 -126 -177 -155 -264 -68 -63 63 -58 143 17 267 157 259 468 371
751 272 91 -32 144 -70 458 -328 165 -136 600 -493 966 -795 395 -324 684
-569 709 -600 23 -28 59 -88 80 -132 109 -233 85 -488 -66 -700 -46 -64 -39
-59 -1330 -1120 -126 -104 -314 -259 -418 -345 -332 -275 -406 -313 -612 -313
-94 0 -121 3 -190 27 -169 58 -296 167 -373 322 -48 96 -62 169 -69 352 -10
305 20 455 120 595 50 69 67 85 457 401 275 223 315 267 346 374 21 72 14 187
-16 266 -16 41 -40 77 -84 121 -33 35 -403 342 -821 681 -418 340 -826 672
-908 738 -196 161 -216 171 -337 171 -86 0 -100 -3 -148 -29 -65 -36 -107 -82
-141 -156 l-26 -55 0 -1625 0 -1625 26 -55 c56 -119 142 -180 266 -188 87 -6
148 9 205 51 89 64 158 71 219 20 61 -51 78 -137 39 -200 -45 -75 -201 -157
-343 -181 -86 -15 -102 -15 -192 0 -260 43 -468 241 -520 496 -13 63 -15 287
-13 1715 l3 1642 28 78 c81 229 278 394 512 431 53 8 199 -3 255 -20z m688
-3594 c71 -44 95 -143 50 -210 -38 -55 -73 -75 -133 -75 -151 0 -211 196 -86
281 46 31 122 33 169 4z"/>
</g>
</svg>
